# xmcd CD database file
#
# Track frame offsets:
#	183
#	12520
#	27345
#	41478
#	54183
#	67363
#	84843
#	96278
#	110035
#	123125
#	135740
#	148760
#	162015
#	174553
#	187305
#	203383
#
# Disc length: 2872 seconds
#
# Revision: 0
# Processed by: cddbd v1.4PL0 Copyright (c) Steve Scherf et al.
# Submitted via: CDex 1.50Beta7
#
DISCID=de0b3610
DTITLE=Johnny Meyer - The swinging Accordeon
DYEAR=1900
DGENRE=Jazz
TTITLE0=Sweet Georgia Brown
TTITLE1=What a difference a day made
TTITLE2=How high the moon
TTITLE3=Take the A train
TTITLE4=I got Rythm
TTITLE5=Caravan
TTITLE6=Ain't she sweet
TTITLE7=September in the rain
TTITLE8=Some of these days
TTITLE9=All of me
TTITLE10=Who's sorry now
TTITLE11=Dark eyes
TTITLE12=It had to be you
TTITLE13=I can't get you anything but love
TTITLE14=On the sunny side of the street
TTITLE15=Somebody loves me
EXTD=
EXTT0=
EXTT1=
EXTT2=
EXTT3=
EXTT4=
EXTT5=
EXTT6=
EXTT7=
EXTT8=
EXTT9=
EXTT10=
EXTT11=
EXTT12=
EXTT13=
EXTT14=
EXTT15=
PLAYORDER=
